<svg viewBox="0 0 256 256" xmlns="http://www.w3.org/2000/svg"><path d="m208.23975 123.75488a6.00033 6.00033 0 0 1 -.00586 8.48535l-82.05323 81.94629a54.0001 54.0001 0 0 1 -76.36425-76.37109l99.27832-100.66016a37.99975 37.99975 0 1 1 53.76953 53.71l-99.27881 100.6611a21.99974 21.99974 0 1 1 -31.1416-31.083l83.273-84.65625a6.00025 6.00025 0 0 1 8.55468 8.416l-83.30761 84.6914a9.99968 9.99968 0 1 0 14.10644 14.17676l99.2793-100.66211a26 26 0 1 0 -36.74024-36.79883l-99.27837 100.66114a42.00036 42.00036 0 1 0 59.36719 59.42774l82.05615-81.94922a6.00077 6.00077 0 0 1 8.48536.00488z"/></svg>